<mxfile host="app.diagrams.net" agent="Mozilla/5.0 (Windows NT 10.0; Win64; x64) AppleWebKit/537.36 (KHTML, like Gecko) Chrome/132.0.0.0 Safari/537.36" version="26.0.10">
  <diagram id="2wq8C1NUbCKPgK9NYFY5" name="Page-1">
    <mxGraphModel dx="1018" dy="490" grid="1" gridSize="10" guides="1" tooltips="1" connect="1" arrows="1" fold="1" page="1" pageScale="1" pageWidth="827" pageHeight="1169" math="0" shadow="0">
      <root>
        <mxCell id="0" />
        <mxCell id="1" parent="0" />
        <mxCell id="dK27fU7lNd_mnWsU9Kuk-16" value="memory" style="swimlane;whiteSpace=wrap;html=1;" vertex="1" parent="1">
          <mxGeometry x="290" y="80" width="80" height="360" as="geometry" />
        </mxCell>
        <mxCell id="dK27fU7lNd_mnWsU9Kuk-33" style="edgeStyle=orthogonalEdgeStyle;rounded=0;orthogonalLoop=1;jettySize=auto;html=1;entryX=1;entryY=0.5;entryDx=0;entryDy=0;" edge="1" parent="dK27fU7lNd_mnWsU9Kuk-16" source="dK27fU7lNd_mnWsU9Kuk-20" target="dK27fU7lNd_mnWsU9Kuk-23">
          <mxGeometry relative="1" as="geometry">
            <Array as="points">
              <mxPoint x="110" y="220" />
              <mxPoint x="110" y="90" />
            </Array>
          </mxGeometry>
        </mxCell>
        <mxCell id="dK27fU7lNd_mnWsU9Kuk-20" value="0x666000" style="text;strokeColor=#6c8ebf;fillColor=#dae8fc;align=left;verticalAlign=middle;spacingLeft=4;spacingRight=4;overflow=hidden;points=[[0,0.5],[1,0.5]];portConstraint=eastwest;rotatable=0;whiteSpace=wrap;html=1;" vertex="1" parent="dK27fU7lNd_mnWsU9Kuk-16">
          <mxGeometry y="200" width="80" height="40" as="geometry" />
        </mxCell>
        <mxCell id="dK27fU7lNd_mnWsU9Kuk-23" value="13" style="text;strokeColor=#6c8ebf;fillColor=#dae8fc;align=left;verticalAlign=middle;spacingLeft=4;spacingRight=4;overflow=hidden;points=[[0,0.5],[1,0.5]];portConstraint=eastwest;rotatable=0;whiteSpace=wrap;html=1;" vertex="1" parent="dK27fU7lNd_mnWsU9Kuk-16">
          <mxGeometry y="80" width="80" height="20" as="geometry" />
        </mxCell>
        <mxCell id="dK27fU7lNd_mnWsU9Kuk-25" value="" style="text;strokeColor=#6c8ebf;fillColor=#dae8fc;align=left;verticalAlign=middle;spacingLeft=4;spacingRight=4;overflow=hidden;points=[[0,0.5],[1,0.5]];portConstraint=eastwest;rotatable=0;whiteSpace=wrap;html=1;" vertex="1" parent="dK27fU7lNd_mnWsU9Kuk-16">
          <mxGeometry y="20" width="80" height="10" as="geometry" />
        </mxCell>
        <mxCell id="dK27fU7lNd_mnWsU9Kuk-35" style="edgeStyle=orthogonalEdgeStyle;rounded=0;orthogonalLoop=1;jettySize=auto;html=1;entryX=1;entryY=0.5;entryDx=0;entryDy=0;" edge="1" parent="dK27fU7lNd_mnWsU9Kuk-16" source="dK27fU7lNd_mnWsU9Kuk-28" target="dK27fU7lNd_mnWsU9Kuk-43">
          <mxGeometry relative="1" as="geometry">
            <mxPoint x="150" y="30" as="targetPoint" />
            <Array as="points">
              <mxPoint x="130" y="260" />
              <mxPoint x="130" y="70" />
            </Array>
          </mxGeometry>
        </mxCell>
        <mxCell id="dK27fU7lNd_mnWsU9Kuk-28" value="0x666002" style="text;strokeColor=#6c8ebf;fillColor=#dae8fc;align=left;verticalAlign=middle;spacingLeft=4;spacingRight=4;overflow=hidden;points=[[0,0.5],[1,0.5]];portConstraint=eastwest;rotatable=0;whiteSpace=wrap;html=1;" vertex="1" parent="dK27fU7lNd_mnWsU9Kuk-16">
          <mxGeometry y="240" width="80" height="40" as="geometry" />
        </mxCell>
        <mxCell id="dK27fU7lNd_mnWsU9Kuk-51" style="edgeStyle=orthogonalEdgeStyle;rounded=0;orthogonalLoop=1;jettySize=auto;html=1;exitX=1;exitY=0.5;exitDx=0;exitDy=0;entryX=1.004;entryY=0.75;entryDx=0;entryDy=0;entryPerimeter=0;" edge="1" parent="dK27fU7lNd_mnWsU9Kuk-16" source="dK27fU7lNd_mnWsU9Kuk-41" target="dK27fU7lNd_mnWsU9Kuk-28">
          <mxGeometry relative="1" as="geometry">
            <mxPoint x="160" y="20" as="targetPoint" />
            <Array as="points">
              <mxPoint x="150" y="340" />
              <mxPoint x="150" y="270" />
            </Array>
          </mxGeometry>
        </mxCell>
        <mxCell id="dK27fU7lNd_mnWsU9Kuk-41" value="0x665000" style="text;strokeColor=#6c8ebf;fillColor=#dae8fc;align=left;verticalAlign=middle;spacingLeft=4;spacingRight=4;overflow=hidden;points=[[0,0.5],[1,0.5]];portConstraint=eastwest;rotatable=0;whiteSpace=wrap;html=1;" vertex="1" parent="dK27fU7lNd_mnWsU9Kuk-16">
          <mxGeometry y="320" width="80" height="40" as="geometry" />
        </mxCell>
        <mxCell id="dK27fU7lNd_mnWsU9Kuk-43" value="22" style="text;strokeColor=#6c8ebf;fillColor=#dae8fc;align=left;verticalAlign=middle;spacingLeft=4;spacingRight=4;overflow=hidden;points=[[0,0.5],[1,0.5]];portConstraint=eastwest;rotatable=0;whiteSpace=wrap;html=1;" vertex="1" parent="dK27fU7lNd_mnWsU9Kuk-16">
          <mxGeometry y="60" width="80" height="20" as="geometry" />
        </mxCell>
        <mxCell id="dK27fU7lNd_mnWsU9Kuk-30" value="0x666000" style="text;strokeColor=none;fillColor=none;align=left;verticalAlign=middle;spacingLeft=4;spacingRight=4;overflow=hidden;points=[[0,0.5],[1,0.5]];portConstraint=eastwest;rotatable=0;whiteSpace=wrap;html=1;" vertex="1" parent="1">
          <mxGeometry x="210" y="160" width="80" height="20" as="geometry" />
        </mxCell>
        <mxCell id="dK27fU7lNd_mnWsU9Kuk-31" value="" style="curved=1;endArrow=none;html=1;rounded=0;startFill=0;" edge="1" parent="1">
          <mxGeometry width="50" height="50" relative="1" as="geometry">
            <mxPoint x="300" y="230" as="sourcePoint" />
            <mxPoint x="360" y="230" as="targetPoint" />
            <Array as="points">
              <mxPoint x="320" y="220" />
              <mxPoint x="340" y="240" />
            </Array>
          </mxGeometry>
        </mxCell>
        <mxCell id="dK27fU7lNd_mnWsU9Kuk-32" value="0x665008" style="text;strokeColor=none;fillColor=none;align=left;verticalAlign=middle;spacingLeft=4;spacingRight=4;overflow=hidden;points=[[0,0.5],[1,0.5]];portConstraint=eastwest;rotatable=0;whiteSpace=wrap;html=1;" vertex="1" parent="1">
          <mxGeometry x="210" y="290" width="80" height="20" as="geometry" />
        </mxCell>
        <mxCell id="dK27fU7lNd_mnWsU9Kuk-34" value="0x665000" style="text;strokeColor=none;fillColor=none;align=left;verticalAlign=middle;spacingLeft=4;spacingRight=4;overflow=hidden;points=[[0,0.5],[1,0.5]];portConstraint=eastwest;rotatable=0;whiteSpace=wrap;html=1;" vertex="1" parent="1">
          <mxGeometry x="210" y="330" width="80" height="20" as="geometry" />
        </mxCell>
        <mxCell id="dK27fU7lNd_mnWsU9Kuk-37" value="int b = 13;" style="text;strokeColor=none;fillColor=none;align=left;verticalAlign=middle;spacingLeft=4;spacingRight=4;overflow=hidden;points=[[0,0.5],[1,0.5]];portConstraint=eastwest;rotatable=0;whiteSpace=wrap;html=1;" vertex="1" parent="1">
          <mxGeometry x="120" y="160" width="80" height="20" as="geometry" />
        </mxCell>
        <mxCell id="dK27fU7lNd_mnWsU9Kuk-39" value="int* b_p = &amp;amp;b;" style="text;strokeColor=none;fillColor=none;align=left;verticalAlign=middle;spacingLeft=4;spacingRight=4;overflow=hidden;points=[[0,0.5],[1,0.5]];portConstraint=eastwest;rotatable=0;whiteSpace=wrap;html=1;" vertex="1" parent="1">
          <mxGeometry x="80" y="290" width="120" height="20" as="geometry" />
        </mxCell>
        <mxCell id="dK27fU7lNd_mnWsU9Kuk-40" value="int* next_p = b_p+1;" style="text;strokeColor=none;fillColor=none;align=left;verticalAlign=middle;spacingLeft=4;spacingRight=4;overflow=hidden;points=[[0,0.5],[1,0.5]];portConstraint=eastwest;rotatable=0;whiteSpace=wrap;html=1;" vertex="1" parent="1">
          <mxGeometry x="80" y="330" width="120" height="20" as="geometry" />
        </mxCell>
        <mxCell id="dK27fU7lNd_mnWsU9Kuk-44" value="0x666004" style="text;strokeColor=none;fillColor=none;align=left;verticalAlign=middle;spacingLeft=4;spacingRight=4;overflow=hidden;points=[[0,0.5],[1,0.5]];portConstraint=eastwest;rotatable=0;whiteSpace=wrap;html=1;" vertex="1" parent="1">
          <mxGeometry x="210" y="140" width="80" height="20" as="geometry" />
        </mxCell>
        <mxCell id="dK27fU7lNd_mnWsU9Kuk-46" value="&lt;span style=&quot;color: rgb(0, 0, 0); font-family: Helvetica; font-size: 12px; font-style: normal; font-variant-ligatures: normal; font-variant-caps: normal; font-weight: 400; letter-spacing: normal; orphans: 2; text-align: left; text-indent: 0px; text-transform: none; widows: 2; word-spacing: 0px; -webkit-text-stroke-width: 0px; white-space: normal; background-color: rgb(251, 251, 251); text-decoration-thickness: initial; text-decoration-style: initial; text-decoration-color: initial; float: none; display: inline !important;&quot;&gt;&amp;nbsp; short int a;&lt;/span&gt;" style="text;whiteSpace=wrap;html=1;" vertex="1" parent="1">
          <mxGeometry x="115" y="90" width="90" height="30" as="geometry" />
        </mxCell>
        <mxCell id="dK27fU7lNd_mnWsU9Kuk-50" value="0x66600d" style="text;strokeColor=none;fillColor=none;align=left;verticalAlign=middle;spacingLeft=4;spacingRight=4;overflow=hidden;points=[[0,0.5],[1,0.5]];portConstraint=eastwest;rotatable=0;whiteSpace=wrap;html=1;" vertex="1" parent="1">
          <mxGeometry x="210" y="95" width="80" height="20" as="geometry" />
        </mxCell>
        <mxCell id="dK27fU7lNd_mnWsU9Kuk-53" value="int** pp = &amp;amp;next;" style="text;strokeColor=none;fillColor=none;align=left;verticalAlign=middle;spacingLeft=4;spacingRight=4;overflow=hidden;points=[[0,0.5],[1,0.5]];portConstraint=eastwest;rotatable=0;whiteSpace=wrap;html=1;" vertex="1" parent="1">
          <mxGeometry x="80" y="410" width="100" height="20" as="geometry" />
        </mxCell>
        <mxCell id="dK27fU7lNd_mnWsU9Kuk-54" value="0x664FF0" style="text;strokeColor=none;fillColor=none;align=left;verticalAlign=middle;spacingLeft=4;spacingRight=4;overflow=hidden;points=[[0,0.5],[1,0.5]];portConstraint=eastwest;rotatable=0;whiteSpace=wrap;html=1;" vertex="1" parent="1">
          <mxGeometry x="210" y="410" width="80" height="20" as="geometry" />
        </mxCell>
      </root>
    </mxGraphModel>
  </diagram>
</mxfile>
